<?xml version="1.0" encoding="UTF-8"?>
<svg xmlns="http://www.w3.org/2000/svg" viewBox="0 0 840 779" width="840" height="779">
<path d="M51.67 0.12C277.29 0.12 502.92 0.12 728.54 0.12C731.88 1.87 736.81 2 740.58 3.09C748.7 5.43 760.77 13.07 765.79 19.95C770.39 26.25 774.92 32.73 777.12 40.37C781.3 54.86 779.47 71.59 779.47 86.73C779.47 114.78 779.47 142.83 779.47 170.88C779.47 315.8 779.47 460.72 779.47 605.64C779.47 634.18 779.47 662.72 779.47 691.27C779.47 706.63 781.37 723.66 777.12 738.37C774.9 746.07 770.41 752.46 765.79 758.78C760.99 765.37 748.48 773.69 740.58 775.64C736.96 776.54 731.63 777 728.54 778.61C502.92 778.61 277.29 778.61 51.67 778.61C49.19 777.31 42.18 776.59 38.89 775.64C25.45 771.76 14.64 760.86 7.5 749.46C3.94 743.79 2.11 736.65 0.88 730.25C0.55 728.55 0.89 727.05 0.12 725.59C0.12 501.44 0.12 277.29 0.12 53.15C0.89 51.68 0.55 50.18 0.88 48.49C2.11 42.09 3.94 34.95 7.5 29.27C14.59 17.96 25.58 6.93 38.89 3.09C42.81 1.96 48.25 1.92 51.67 0.12ZM107 171.24C106.82 171.37 106.63 171.49 106.45 171.62C106.46 173.59 106.48 175.55 106.49 177.52C106.66 177.63 106.82 177.73 106.99 177.84C107.45 199.4 120.86 219.89 138.79 231.38C143.48 234.39 148.72 235.89 153.76 237.82C158.63 239.67 171 242.13 176.02 241.35C181.11 240.55 186.37 240.26 191.41 239.02C212.73 233.76 230.26 215.84 237.08 195.38C239.85 187.06 241.4 177.99 240.44 169.13C240.34 167.66 240.24 166.19 240.13 164.72C233.99 135.08 213.3 112.59 182.67 107.79C179.86 107.35 176.67 107.77 173.83 107.77C139.6 107.77 107.5 135.84 107 171.24ZM304 293C302.27 296.44 303.39 311.46 303.39 316.29C303.39 335.24 303.39 354.18 303.39 373.13C303.39 440.79 303.39 508.45 303.39 576.12C303.39 597.03 303.39 617.94 303.39 638.86C303.39 643.42 302.35 659.88 304.09 662.82C306.38 664.3 310.48 663.59 313.34 663.59C320.23 663.59 327.12 663.59 334.01 663.59C352.71 663.59 371.41 663.59 390.11 663.59C399.18 663.59 409.67 664.99 418.52 663.22C420.79 658.47 419.26 650.1 419.26 644.76C419.26 630.25 419.26 615.73 419.26 601.21C419.26 570.95 419.26 540.69 419.26 510.42C419.26 494.76 417.57 477.79 419.98 462.42C420.74 457.58 420 452.54 420.76 447.7C423.42 430.73 428.9 410 443.25 398.59C451.78 391.82 461.52 387.5 472.18 385.45C476.69 384.58 482.07 385.53 486.35 384.02C487.86 384.02 489.36 384.02 490.86 384.02C493.64 384.94 496.47 384.15 499.33 384.59C505.42 385.55 513.07 387.23 518.43 390.59C536.89 402.17 543.69 419.57 546.94 440.32C547.74 445.45 547.61 450.72 548.41 455.82C549.03 459.75 548.27 464.01 548.58 467.98C548.76 532.92 548.94 597.86 549.11 662.81C551.45 664.29 555.5 663.59 558.4 663.59C565.29 663.59 572.18 663.59 579.07 663.59C597.52 663.59 615.98 663.59 634.43 663.59C643.51 663.59 654 664.99 662.85 663.22C664.84 659.03 663.59 649.02 663.59 644.02C663.59 628.77 663.59 613.51 663.59 598.26C663.59 562.09 663.59 525.92 663.59 489.75C663.59 471.61 664.96 452.83 663.43 434.76C663.48 431.93 663.53 429.1 663.58 426.27C663.37 426.14 663.17 426.01 662.96 425.87C661.05 394.89 655.3 356.85 636.62 330.71C624.04 313.09 607.49 300.59 587.33 292.9C582.71 291.14 577.87 289.02 573.03 288.01C567.93 286.95 562.76 285.75 557.64 284.94C554 284.37 550.26 284.73 546.61 284.16C524.65 280.72 498.85 283.05 478.08 290.96C460.31 297.74 445.24 308.03 431.81 321.46C427.56 325.71 423.63 330.82 420.39 335.88C418.81 338.34 417.99 341.67 415.2 342.5C413.32 333.09 414.83 316.87 414.83 306.7C414.83 302.46 415.89 296.44 414.09 292.67C405.7 290.99 395.77 292.3 387.15 292.3C369.19 292.3 351.23 292.3 333.27 292.3C326.63 292.3 319.98 292.3 313.34 292.3C310.4 292.3 306.5 291.64 304 293ZM231.04 292.67C222.64 290.99 212.71 292.3 204.09 292.3C186.13 292.3 168.17 292.3 150.21 292.3C142.7 292.3 121.75 290.8 115.89 293.04C115.89 416.31 115.89 539.58 115.89 662.85C123.63 665.19 135.97 663.59 144.31 663.59C163.74 663.59 183.18 663.59 202.62 663.59C209.26 663.59 215.91 663.59 222.55 663.59C225.39 663.59 228.74 664.26 231.04 662.48C233.34 657.65 231.78 644.72 231.78 638.86C231.78 619.91 231.78 600.97 231.78 582.02C231.78 515.1 231.78 448.17 231.78 381.25C231.78 360.33 231.78 339.42 231.78 318.51C231.78 312.84 233.09 296.97 231.04 292.67ZM814.72 627.23C817.34 627.24 819.96 627.24 822.57 627.24C830 628.22 835.76 633.58 838.39 640.47C838.98 642.03 839.16 643.77 839.88 645.13C839.88 646.85 839.88 648.58 839.88 650.3C837.17 655.47 836.47 660.84 831.12 664.67C819.62 672.88 800.41 666.78 798.46 651.9C798.46 648.9 798.46 645.9 798.45 642.91C800.12 634.79 806.7 628.92 814.72 627.23ZM816.15 629.77C807.58 631.48 801.96 638.55 800.9 647C799.76 656.1 809.97 666.37 818.94 665.78C827.16 665.23 834.91 659.05 836.29 650.64C838.08 639.66 827.75 627.45 816.15 629.77ZM822.28 649.19C824.01 652.14 825.73 655.1 827.45 658.05C820.38 659.39 823 648.9 814.9 648.82C814.9 652.02 814.9 655.22 814.9 658.42C813.82 658.36 812.36 658.69 811.6 657.66C810.68 656.39 811.21 653.64 811.21 652.14C811.21 647.22 810.62 641.8 811.58 637.01C815.13 635.69 822.86 635.36 825.95 638.14C830.26 642.02 826.82 647.84 822.28 649.19ZM814.99 639.23C814.99 641.69 814.99 644.15 814.99 646.61C818.2 646.61 821.15 646.79 823.76 644.76C825.87 638.95 818.8 639.23 814.99 639.23Z" fill="#ffffff" fill-rule="evenodd" stroke="#ffffff" stroke-width="0.25" stroke-linejoin="round"/>
<path d="M240.13 164.72C240.24 166.19 240.34 167.66 240.44 169.13C240.34 167.66 240.24 166.19 240.13 164.72ZM107 171.24C107 173.44 106.99 175.64 106.99 177.84C106.82 177.73 106.66 177.63 106.49 177.52C106.48 175.55 106.46 173.59 106.45 171.62C106.63 171.49 106.82 171.37 107 171.24ZM304 293C304.03 416.27 304.06 539.55 304.09 662.82C302.35 659.88 303.39 643.42 303.39 638.86C303.39 617.94 303.39 597.03 303.39 576.12C303.39 508.45 303.39 440.79 303.39 373.13C303.39 354.18 303.39 335.24 303.39 316.29C303.39 311.46 302.27 296.44 304 293ZM486.35 384.02C487.86 384.02 489.36 384.02 490.86 384.02C489.36 384.02 487.86 384.02 486.35 384.02ZM662.96 425.87C663.17 426.01 663.37 426.14 663.58 426.27C663.53 429.1 663.48 431.93 663.43 434.76C663.27 434.64 663.11 434.52 662.95 434.39C662.95 431.55 662.95 428.71 662.96 425.87ZM548.58 467.98C548.76 532.92 548.94 597.86 549.11 662.81C548.94 597.86 548.76 532.92 548.58 467.98ZM822.57 627.24C819.96 627.24 817.34 627.24 814.72 627.23C817.34 627.24 819.96 627.24 822.57 627.24ZM798.45 642.91C798.46 645.9 798.46 648.9 798.46 651.9C797.42 649.36 797.49 645.52 798.45 642.91Z" fill="#cecece" fill-rule="evenodd" stroke="#cecece" stroke-width="0.25" stroke-linejoin="round"/>
</svg>